# xmcd
#
# Track frame offsets:
#	150
#	27050
#	48475
#	69265
#	91558
#	113028
#	134828
#	158185
#	178083
#	206153
#	225423
#	250205
#	280675
#	301115
#
# Disc length: 4345 seconds
#
# Revision: 1
# Processed by: cddbd v1.5.2PL0 Copyright (c) Steve Scherf et al.
# Submitted via: EZCDAudioConverter 8.0.2.1
#
DISCID=b410f70e
DTITLE=Various Artist - Ngậm Ngùi
DYEAR=1999
DGENRE=World Pop
TTITLE0=Duy Quang - Ngậm ngùi
TTITLE1=Duy Quang, Thái Hiền - Tiếng thu
TTITLE2=Elvis Phương - Tiếng đàn tôi
TTITLE3=Julie - Mộng du
TTITLE4=Thái Hiền - Đưa em tìm động hoa vàng
TTITLE5=Duy Quang - Chuyện tình buồn
TTITLE6=Julie - Mộ khúc
TTITLE7=Thái Hiền - Kiếp sau
TTITLE8=Duy Quang - Ngày đó chúng mình
TTITLE9=Julie - Nghìn năm vẫn chưa quên
TTITLE10=Thái Hiền - Cành hoa trắng
TTITLE11=Elvis Phương - Cỏ hồng
TTITLE12=Lệ Thu - Bên cầu biên giới
TTITLE13=Duy Quang, Thái Hiền - Tóc mai sợi vắn sợi dài
EXTD=
EXTT0=
EXTT1=
EXTT2=
EXTT3=
EXTT4=
EXTT5=
EXTT6=
EXTT7=
EXTT8=
EXTT9=
EXTT10=
EXTT11=
EXTT12=
EXTT13=
PLAYORDER=
